<svg width="49" height="49" viewBox="0 0 49 49" fill="none" xmlns="http://www.w3.org/2000/svg">
<rect x="0.5" y="0.5" width="48" height="48" rx="23" stroke="#A9A9A9" stroke-opacity="0.38"/>
<path d="M38.2223 18.5411C37.9554 16.4503 36.7379 15.1389 34.5769 14.9452C32.1026 14.7234 26.7463 14.5958 24.2619 14.5958C19.18 14.5958 16.909 14.7189 14.5058 14.9657C12.2157 15.2004 11.2131 16.21 10.8191 18.2943C10.5431 19.7549 10.4255 21.1229 10.4255 24.3559C10.4255 27.26 10.5638 29.0865 10.7777 30.6232C11.0719 32.7335 12.532 33.9193 14.6719 34.096C17.1613 34.3017 22.1483 34.4043 24.614 34.4043C26.9965 34.4043 32.3584 34.2812 34.7424 34.0139C36.8761 33.7746 37.8908 32.6439 38.2223 30.5616C38.2223 30.5616 38.5745 28.2806 38.5745 24.3353C38.5745 22.0889 38.409 19.9997 38.2223 18.5411ZM21.507 28.4248V20.3971L29.212 24.3699L21.507 28.4248Z" fill="#C31111"/>
</svg>
