<svg width="101" height="101" viewBox="0 0 101 101" fill="none" xmlns="http://www.w3.org/2000/svg">
<path d="M83.185 54.724C86.613 51.265 88.5 46.591 88.5 41.563C88.5 30.776 79.383 22 68.176 22C60.342 22 53.335 26.332 49.968 32.903C46.574 26.403 39.593 22.12 31.824 22.12C20.617 22.12 11.5 30.896 11.5 41.683C11.5 46.693 13.357 51.335 16.729 54.753C24.474 62.603 48.729 85.365 48.974 85.594C49.262 85.864 49.631 86 50 86C50.371 86 50.741 85.863 51.03 85.591C51.272 85.361 75.429 62.546 83.185 54.724ZM49.997 82.438C45.274 78 25.656 59.529 18.865 52.646C16.05 49.793 14.5 45.9 14.5 41.683C14.5 32.55 22.271 25.12 31.824 25.12C39.642 25.12 46.516 30.169 48.539 37.397C48.72 38.045 49.311 38.493 49.983 38.493C49.985 38.493 49.986 38.493 49.988 38.493C50.663 38.491 51.253 38.038 51.43 37.387C53.416 30.094 60.302 25 68.176 25C77.729 25 85.5 32.43 85.5 41.563C85.5 45.795 83.921 49.719 81.054 52.611C74.248 59.476 54.703 77.987 49.997 82.438Z" fill="#B11616"/>
<path d="M83.5 52.5L50 84L31 66L15.5 51.5L13 45.5V39L17 31.5L22.5 26L32 24L43.5 27L50 36L54 29.5L61.5 25L73.5 24L83.5 31.5L87.5 42.5L83.5 52.5Z" fill="#B11616"/>
</svg>
