<svg width="101" height="101" viewBox="0 0 101 101" fill="none" xmlns="http://www.w3.org/2000/svg">
<path d="M81.551 33.587V17.44C81.551 16.612 80.88 15.94 80.051 15.94H51.936V8.70898C51.936 7.88098 51.265 7.20898 50.436 7.20898C49.607 7.20898 48.936 7.88098 48.936 8.70898V15.94H19.956C19.127 15.94 18.456 16.612 18.456 17.44V33.555C18.395 33.738 18.366 33.933 18.379 34.129L21.923 87.391C21.975 88.179 22.63 88.791 23.42 88.791H76.58C77.37 88.791 78.024 88.179 78.077 87.391L81.621 34.129C81.632 33.944 81.605 33.761 81.551 33.587ZM78.551 18.94V32.53H21.456V18.94H78.551ZM75.176 85.792H24.823L21.479 35.53H78.521L75.176 85.792Z" fill="white"/>
<path d="M50.436 74.822C51.265 74.822 51.936 74.15 51.936 73.322V48C51.936 47.172 51.265 46.5 50.436 46.5C49.607 46.5 48.936 47.172 48.936 48V73.322C48.936 74.15 49.608 74.822 50.436 74.822Z" fill="white"/>
<path d="M64.625 74.822C65.454 74.822 66.125 74.15 66.125 73.322V48C66.125 47.172 65.454 46.5 64.625 46.5C63.796 46.5 63.125 47.172 63.125 48V73.322C63.125 74.15 63.796 74.822 64.625 74.822Z" fill="white"/>
<path d="M36.7919 74.822C36.8099 74.822 36.8269 74.822 36.8449 74.821C37.6729 74.793 38.3209 74.098 38.2919 73.27L37.4189 47.948C37.3909 47.12 36.6849 46.453 35.8679 46.501C35.0399 46.529 34.3919 47.224 34.4209 48.052L35.2939 73.374C35.3219 74.185 35.9879 74.822 36.7919 74.822Z" fill="white"/>
</svg>
