<svg width="101" height="101" viewBox="0 0 101 101" fill="none" xmlns="http://www.w3.org/2000/svg">
<path d="M88.8534 76.777L54.0484 13.21C53.1194 11.514 51.4194 10.501 49.5004 10.501C47.5814 10.501 45.8814 11.514 44.9524 13.21L10.1474 76.777C9.25142 78.413 9.28441 80.348 10.2354 81.953C11.1804 83.548 12.8474 84.5 14.6964 84.5H84.3034C86.1524 84.5 87.8194 83.548 88.7644 81.953C89.7164 80.349 89.7494 78.413 88.8534 76.777ZM86.1844 80.424C85.7794 81.108 85.0944 81.5 84.3044 81.5H14.6974C13.9074 81.5 13.2224 81.108 12.8174 80.424C12.4124 79.74 12.3974 78.915 12.7794 78.217L47.5844 14.65C47.9794 13.93 48.6954 13.5 49.5014 13.5C50.3074 13.5 51.0234 13.93 51.4184 14.65L86.2234 78.217C86.6044 78.915 86.5894 79.74 86.1844 80.424Z" fill="white"/>
<path d="M51.9849 69.6094C52.0643 68.231 51.0112 67.0493 49.6329 66.9699C48.2545 66.8905 47.0728 67.9435 46.9934 69.3219C46.914 70.7002 47.967 71.882 49.3454 71.9614C50.7237 72.0408 51.9055 70.9877 51.9849 69.6094Z" fill="white"/>
<path d="M49.5 59.5C50.328 59.5 51 58.829 51 58V34C51 33.171 50.328 32.5 49.5 32.5C48.672 32.5 48 33.171 48 34V58C48 58.829 48.672 59.5 49.5 59.5Z" fill="white"/>
</svg>
