<svg width="101" height="101" viewBox="0 0 101 101" fill="none" xmlns="http://www.w3.org/2000/svg">
<path d="M89.0789 9.42004H36.1559C35.3269 9.42004 34.6559 10.092 34.6559 10.92V32.548H10.9219C10.0929 32.548 9.42188 33.219 9.42188 34.048V76.128C9.42188 76.957 10.0929 77.628 10.9219 77.628H23.4699L35.2769 90.11C35.5659 90.416 35.9629 90.579 36.3669 90.579C36.5529 90.579 36.7409 90.544 36.9209 90.473C37.4919 90.246 37.8659 89.694 37.8669 89.08L37.8729 77.628H66.4239C67.2529 77.628 67.9239 76.957 67.9239 76.128V54.505H89.0789C89.9079 54.505 90.5789 53.833 90.5789 53.005V10.92C90.5789 10.092 89.9079 9.42004 89.0789 9.42004ZM64.9239 74.628H36.3739C35.5459 74.628 34.8739 75.299 34.8739 76.128L34.8689 85.314L25.2059 75.098C24.9219 74.799 24.5279 74.629 24.1159 74.629H12.4219V35.549H34.6559V53.006C34.6559 53.834 35.3269 54.506 36.1559 54.506H46.7809V65.027C46.7809 65.631 47.1429 66.176 47.6999 66.41C47.8879 66.489 48.0849 66.527 48.2799 66.527C48.6659 66.527 49.0449 66.378 49.3309 66.097L61.1429 54.506H64.9239V74.628ZM87.5789 51.505H60.5309C60.1379 51.505 59.7609 51.659 59.4799 51.934L49.7799 61.452V53.005C49.7799 52.176 49.1089 51.505 48.2799 51.505H37.6549V12.42H87.5779V51.504L87.5789 51.505Z" fill="white"/>
</svg>
